<svg width="40" height="40" viewBox="0 0 40 40" fill="none" xmlns="http://www.w3.org/2000/svg">
<path d="M39.9827 19.9913C39.9827 26.5778 36.7971 32.4202 31.8833 36.0627C29.8262 37.587 27.4664 38.726 24.9108 39.3723C23.3368 39.7713 21.6893 39.9827 19.9913 39.9827C18.2933 39.9827 16.645 39.7713 15.071 39.3723C12.5154 38.726 10.1556 37.587 8.09852 36.0619C3.18471 32.4194 0 26.5771 0 19.9913C0 8.95041 8.95041 0 19.9913 0C31.0322 0 39.9827 8.95041 39.9827 19.9913Z" fill="#5221E6"/>
<path d="M31.9394 31.8754C31.8455 31.2463 31.7215 30.5983 31.5681 29.9358C31.4327 29.354 31.2752 28.7608 31.0966 28.1586C30.6265 26.5773 30.0073 24.9339 29.2566 23.2726C28.9277 22.5464 28.5736 21.8169 28.1958 21.0883C27.8629 20.4461 27.512 19.8031 27.1423 19.1642C26.7735 18.5244 26.3933 17.8994 26.0024 17.2899C25.561 16.5988 25.1065 15.9281 24.6414 15.2801C23.579 13.7991 22.4652 12.4406 21.3302 11.2427C20.8986 10.7865 20.4636 10.3541 20.0271 9.94691C19.5302 9.4818 19.0308 9.05019 18.5322 8.65443C15.2772 6.07024 12.3634 5.29424 10.326 6.47006C8.28848 7.64666 7.50351 10.5581 8.11387 14.6698C8.20688 15.2989 8.33175 15.9468 8.48598 16.6093C8.61982 17.1911 8.77726 17.7844 8.95679 18.3865C9.42682 19.9679 10.0461 21.6121 10.7976 23.2725C11.1257 23.9988 11.4798 24.7274 11.8576 25.456C12.1905 26.099 12.5422 26.7412 12.911 27.3809C13.2798 28.0206 13.6601 28.6457 14.0509 29.2552C14.4931 29.9471 14.9476 30.6179 15.412 31.2657C16.4744 32.7467 17.5881 34.1045 18.7232 35.3023C19.1549 35.7584 19.5905 36.1917 20.0271 36.5989C20.524 37.064 21.0233 37.4948 21.5211 37.8906C22.7182 38.8412 23.8687 39.547 24.9466 39.9999C27.5022 39.3536 29.862 38.2146 31.919 36.6903C32.2062 35.3669 32.2168 33.7456 31.9394 31.8754ZM30.1067 36.3934C29.8692 37.4199 29.4327 38.1233 28.8085 38.4831C28.1851 38.8438 27.3577 38.8699 26.3499 38.5631C25.2582 38.2293 23.9836 37.4999 22.6634 36.4514C22.2195 36.0988 21.7748 35.7153 21.3301 35.3033C20.8943 34.8985 20.4586 34.466 20.0262 34.0083C19.2836 33.2225 18.5493 32.3624 17.8329 31.4396C17.3547 30.8236 16.8839 30.1798 16.4245 29.5115C15.7578 28.5429 15.114 27.523 14.502 26.4622C13.8893 25.4014 13.3279 24.3341 12.8228 23.2725C12.4735 22.5406 12.1512 21.8111 11.8575 21.089C11.416 20.0071 11.0382 18.9406 10.729 17.9051C10.5495 17.3013 10.392 16.7089 10.2606 16.1288C10.1251 15.538 10.015 14.9603 9.93175 14.3997C9.68374 12.7327 9.68944 11.264 9.94644 10.1518C10.1839 9.12532 10.6212 8.42195 11.2446 8.06211C11.5816 7.86789 11.9774 7.76997 12.4286 7.76997C12.8137 7.76997 13.2396 7.84095 13.7031 7.98292C14.7949 8.31582 16.0694 9.04613 17.3896 10.0939C17.8335 10.4464 18.279 10.8299 18.7229 11.2436C19.1595 11.6475 19.5944 12.08 20.026 12.537C20.7694 13.3227 21.5038 14.1828 22.221 15.1065C22.6992 15.7225 23.17 16.3663 23.6294 17.0346C24.2952 18.0032 24.9391 19.0231 25.551 20.0831C26.1638 21.1439 26.7252 22.2111 27.2303 23.2727C27.5795 24.0054 27.9018 24.7349 28.1955 25.4571C28.637 26.539 29.0148 27.6047 29.324 28.6401C29.5036 29.2439 29.661 29.8363 29.7932 30.4165C29.9278 31.0072 30.038 31.5849 30.1213 32.1455C30.3695 33.8125 30.3637 35.2812 30.1067 36.3934Z" fill="black"/>
<path d="M33.4334 17.258C32.8418 17.0247 32.2184 16.8084 31.5673 16.6093C30.9961 16.4355 30.4037 16.2747 29.7925 16.1287C28.1883 15.7452 26.4552 15.4596 24.6413 15.2801C23.849 15.2009 23.0403 15.143 22.2211 15.1063C21.4981 15.0728 20.7654 15.0557 20.027 15.0557C19.2885 15.0557 18.5557 15.0728 17.832 15.1063C17.0119 15.143 16.2033 15.2018 15.411 15.2801C13.5971 15.4596 11.8648 15.7452 10.2606 16.1287C9.64943 16.2747 9.05703 16.4355 8.4858 16.6093C7.83467 16.8076 7.21127 17.0247 6.61965 17.258C2.75446 18.7838 0.624756 20.9201 0.624756 23.2725C0.624756 25.6249 2.75446 27.7612 6.61973 29.2878C7.21135 29.5212 7.83389 29.7374 8.48502 29.9365C9.05618 30.1104 9.64857 30.2711 10.2598 30.4163C11.864 30.8006 13.5971 31.0854 15.4119 31.2657C16.2042 31.3441 17.0128 31.402 17.8328 31.4396C18.5558 31.473 19.2885 31.4893 20.027 31.4893C20.7654 31.4893 21.4973 31.473 22.2203 31.4396C23.0403 31.402 23.8482 31.3441 24.6413 31.2657C26.4552 31.0862 28.1891 30.8006 29.7933 30.4163C30.4045 30.2703 30.9969 30.1104 31.5681 29.9358C32.2185 29.7375 32.8419 29.5213 33.4334 29.2878C37.2995 27.7612 39.4284 25.625 39.4284 23.2725C39.4283 20.9201 37.2995 18.7838 33.4334 17.258ZM36.4296 25.4413C35.5957 26.2206 34.3261 26.959 32.7585 27.5784C32.2307 27.7864 31.6757 27.9806 31.0964 28.1585C30.5276 28.334 29.9361 28.4947 29.3241 28.6399C28.2723 28.8904 27.1601 29.0961 26.0023 29.2552C25.2303 29.3621 24.438 29.4478 23.6294 29.5106C22.4568 29.6045 21.2517 29.6518 20.0269 29.6518C18.8021 29.6518 17.5969 29.6045 16.4244 29.5115C15.6158 29.4479 14.8227 29.3622 14.0507 29.2553C12.8929 29.0961 11.7807 28.8905 10.7289 28.64C10.1169 28.4948 9.52535 28.334 8.95661 28.1586C8.37725 27.9807 7.82241 27.7865 7.29444 27.5784C5.727 26.9591 4.45731 26.2207 3.62338 25.4414C2.85309 24.7225 2.46224 23.993 2.46224 23.2726C2.46224 22.5521 2.85309 21.8226 3.62338 21.1037C4.45731 20.3245 5.72692 19.586 7.29444 18.9667C7.82234 18.7587 8.37725 18.5645 8.95661 18.3866C9.52535 18.2111 10.1169 18.0504 10.7289 17.9051C11.7807 17.6546 12.8929 17.449 14.0507 17.2899C14.8227 17.1829 15.6158 17.0973 16.4244 17.0336C17.5969 16.9406 18.8021 16.8933 20.0269 16.8933C21.2517 16.8933 22.4568 16.9406 23.6294 17.0345C24.438 17.0974 25.2303 17.183 26.0023 17.2899C27.1601 17.4491 28.2723 17.6547 29.3241 17.9052C29.9361 18.0505 30.5276 18.2112 31.0964 18.3866C31.6757 18.5645 32.2306 18.7587 32.7585 18.9668C34.326 19.5861 35.5957 20.3246 36.4296 21.1038C37.1999 21.8227 37.5907 22.5522 37.5907 23.2726C37.5907 23.993 37.1999 24.7225 36.4296 25.4413Z" fill="black"/>
<path d="M29.7272 6.47006C27.6897 5.29424 24.7759 6.07024 21.521 8.65443C21.0232 9.05019 20.5238 9.4818 20.0269 9.94691C19.5904 10.3541 19.1547 10.7873 18.7231 11.2435C17.588 12.4413 16.4743 13.7991 15.4111 15.2801C14.9468 15.9279 14.4922 16.5987 14.0509 17.2898C13.66 17.8993 13.2798 18.5244 12.911 19.1641C12.5421 19.8038 12.1905 20.446 11.8575 21.089C11.4797 21.8176 11.1256 22.5471 10.7976 23.2725C10.046 24.9338 9.42678 26.5771 8.95675 28.1585C8.77722 28.7615 8.61978 29.3547 8.48508 29.9364C8.33171 30.599 8.20684 31.2461 8.11383 31.8752C7.83637 33.7446 7.84699 35.366 8.13421 36.6894C10.1913 38.2145 12.551 39.3536 15.1067 39.9999C16.1846 39.547 17.3351 38.8412 18.5322 37.8906C19.0307 37.4948 19.5301 37.0632 20.0271 36.5989C20.4636 36.1917 20.8986 35.7592 21.3302 35.3031C22.4644 34.1053 23.579 32.7466 24.6414 31.2656C25.1057 30.6177 25.5602 29.947 26.0025 29.2551C26.3933 28.6456 26.7735 28.0206 27.1424 27.3808C27.512 26.7419 27.8628 26.0997 28.1958 25.4567C28.5736 24.7281 28.9278 23.9986 29.2566 23.2724C30.0073 21.6119 30.6266 19.9677 31.0966 18.3864C31.2753 17.7842 31.4328 17.191 31.5674 16.6092C31.7216 15.9466 31.8456 15.2987 31.9395 14.6696C32.5496 10.5581 31.7647 7.64666 29.7272 6.47006ZM29.3242 17.9051C29.0149 18.9406 28.6371 20.0062 28.1957 21.0882C27.9019 21.8103 27.5796 22.5398 27.2304 23.2725C26.7253 24.3341 26.1639 25.4014 25.5511 26.4622C24.9391 27.5221 24.2953 28.542 23.6295 29.5106C23.1693 30.1797 22.6985 30.8235 22.2204 31.4395C21.504 32.3624 20.7696 33.2224 20.0262 34.0082C19.5946 34.4651 19.1597 34.8976 18.7231 35.3023C18.2793 35.7152 17.8338 36.0987 17.3898 36.4512C16.0696 37.4997 14.795 38.2292 13.7033 38.5629C12.6956 38.8698 11.8681 38.8436 11.2447 38.483C10.6213 38.1231 10.1839 37.4198 9.94655 36.3932C9.68955 35.2811 9.68378 33.8123 9.93187 32.1453C10.0151 31.5848 10.1252 31.0071 10.2599 30.4163C10.3921 29.8362 10.5495 29.2438 10.729 28.64C11.0383 27.6045 11.4161 26.538 11.8575 25.456C12.1513 24.7339 12.4736 24.0044 12.8228 23.2725C13.3279 22.211 13.8893 21.1437 14.5021 20.0829C15.1141 19.0221 15.7579 18.0022 16.4245 17.0336C16.8839 16.3653 17.3539 15.7215 17.832 15.1063C18.5493 14.1827 19.2837 13.3226 20.0262 12.5368C20.4586 12.079 20.8944 11.6466 21.3301 11.2427C21.7748 10.8298 22.2194 10.4463 22.6634 10.0938C23.9836 9.04613 25.2582 8.31582 26.3499 7.98284C26.8134 7.84087 27.2393 7.76989 27.6244 7.76989C28.0756 7.76989 28.4722 7.86781 28.8084 8.06203C29.4325 8.42187 29.8692 9.12524 30.1066 10.1517C30.3636 11.2639 30.3693 12.7327 30.1212 14.3997C30.038 14.9602 29.9279 15.5379 29.7924 16.1287C29.6611 16.7088 29.5036 17.3012 29.3242 17.9051Z" fill="black"/>
<path d="M20.0269 26.9191C22.0408 26.9191 23.6735 25.2865 23.6735 23.2725C23.6735 21.2586 22.0408 19.626 20.0269 19.626C18.013 19.626 16.3804 21.2586 16.3804 23.2725C16.3804 25.2865 18.013 26.9191 20.0269 26.9191Z" fill="black"/>
</svg>
